<svg xmlns="http://www.w3.org/2000/svg" viewBox="0 0 1026.22 189.84"><path d="M193.41,186.43l88.37-162h5.88l88.59,162H330.82l-7.23-15.37H246.07l-7.23,15.37Zm67.8-47.23h47.24L285.62,96.71H284Z" style="fill:#fff"/><path d="M387.32,65.75H421.9v62.6q0,14.7,8.25,23.39t21.58,8.7a28,28,0,0,0,21.36-9q8.48-9,8.47-23.05V65.75h34.36V186.43H479.3a113.57,113.57,0,0,0,1.36-13.78h-1.58q-13.56,16.72-40.46,16.72-22.83,0-37.06-14.12t-14.24-38.76Z" style="fill:#fff"/><path d="M545.75,65.75,567.67,87.9h1.13a45.48,45.48,0,0,1,17.62-18.54,50.54,50.54,0,0,1,25.77-6.55A53.09,53.09,0,0,1,631.4,66.2l-.68,30.51-2.94-1.58a37.71,37.71,0,0,0-6.89-2.6,31.28,31.28,0,0,0-8.25-1q-17.17,0-27.46,10.17T574.45,128.8v57.63H539.87V65.75Z" style="fill:#fff"/><path d="M635.47,126.09q0-27.57,19.32-45.43T704.4,62.81q30.29,0,49.49,17.85t19.21,45.43q0,27.57-19.21,45.43T704.4,189.37q-30.28,0-49.61-17.85T635.47,126.09Zm34.35,0q0,15.38,9.94,25.09,9.94,9.94,24.64,9.94t24.52-9.83q9.83-9.82,9.83-25.2T728.92,101q-9.84-9.7-24.52-9.71T679.76,101Q669.82,110.72,669.82,126.09Z" style="fill:#fff"/><path d="M798.18,65.75,820.11,87.9h1.13a45.44,45.44,0,0,1,17.63-18.54,50.48,50.48,0,0,1,25.76-6.55,53.09,53.09,0,0,1,19.21,3.39l-.68,30.51-2.94-1.58a37.71,37.71,0,0,0-6.89-2.6,31.28,31.28,0,0,0-8.25-1q-17.18,0-27.46,10.17T826.89,128.8v57.63H792.31V65.75Z" style="fill:#fff"/><path d="M904.86,80.89q16.71-18.07,42-18.08a56.58,56.58,0,0,1,29,7.57,55,55,0,0,1,20.46,20.68h1.13l23.27-25.31h5.43V186.43H988.7q1.37-6.56,2.72-18.76h-1.36q-16.72,21.71-46.33,21.7-24.18,0-39.89-17.63t-15.71-45.65Q888.13,99,904.86,80.89Zm18.3,45q0,15.38,10.06,25.32t25,9.94a33.62,33.62,0,0,0,24.75-10.06q10-10,10.06-25.42,0-15.14-10.06-25.09a33.83,33.83,0,0,0-24.75-9.94,34.21,34.21,0,0,0-24.86,9.94Q923.16,110.5,923.16,125.86Z" style="fill:#fff"/><polygon points="30.14 189.84 110.08 189.83 110.08 0 30.14 46.36 30.14 189.84" style="fill:#c2184a"/><polygon points="0 189.83 21.62 189.83 21.62 52.02 0 64.56 0 189.83" style="fill:#c24234"/></svg>